<?xml version="1.0" encoding="UTF-8" ?>
<!DOCTYPE svg PUBLIC "-//W3C//DTD SVG 1.1//EN" "http://www.w3.org/Graphics/SVG/1.1/DTD/svg11.dtd">
<svg width="196pt" height="94pt" viewBox="0 0 196 94" version="1.1" xmlns="http://www.w3.org/2000/svg">
<g id="#36973bff">
<path fill="#36973b" opacity="1.00" d=" M 188.32 0.00 L 188.92 0.00 C 190.20 17.67 191.99 35.31 193.38 52.98 C 194.37 62.15 194.70 71.40 196.00 80.54 L 196.00 80.93 C 142.37 84.23 88.78 88.06 35.16 91.47 C 23.62 92.48 12.03 92.71 0.52 94.00 L 0.00 94.00 L 0.00 86.82 C 0.93 60.24 0.90 33.62 1.00 7.01 C 14.36 7.09 27.68 5.82 41.04 5.77 C 78.69 4.18 116.35 2.89 154.02 1.52 C 165.44 0.67 176.91 1.11 188.32 0.00 Z" />
</g>
</svg>
