<svg width="18" height="18" viewBox="0 0 18 18" fill="none" xmlns="http://www.w3.org/2000/svg">
<path d="M17.2 11.56V17C17.2 17.56 16.76 18 16.2 18H1C0.44 18 0 17.56 0 17V11.56C0 11 0.44 10.56 1 10.56C1.56 10.56 2 11 2 11.56V16H15.2V11.56C15.2 11 15.64 10.56 16.2 10.56C16.76 10.56 17.2 11 17.2 11.56ZM7.88 12.8C8.06001 13 8.32 13.1 8.6 13.1C8.88 13.1 9.12 13 9.31999 12.8L13.3 8.72002C13.68 8.32002 13.68 7.7 13.28 7.3C12.88 6.92 12.26 6.92002 11.86 7.32002L9.58 9.63999V1C9.58 0.44 9.14001 0 8.58 0C8.02001 0 7.58001 0.44 7.58001 1V9.66001L5.3 7.33999C4.92 6.93999 4.28 6.94002 3.88 7.32002C3.48001 7.70002 3.48001 8.33999 3.86001 8.73999L7.88 12.8Z" fill="#000"/>
</svg>
